<svg id="Layer_1" data-name="Layer 1" xmlns="http://www.w3.org/2000/svg" xmlns:xlink="http://www.w3.org/1999/xlink" viewBox="0 0 131.06 305.68"><defs><style>.cls-1{fill:none;}.cls-2{fill:#0081cc;}.cls-3{fill:#21aee5;}.cls-4{clip-path:url(#clip-path);}</style><clipPath id="clip-path"><rect class="cls-1" width="131.06" height="305.68"/></clipPath></defs><title>logo-consonant-h</title><polygon class="cls-2" points="0.03 262.04 43.68 305.68 43.68 262.04 0.03 262.04"/><polygon class="cls-2" points="0.03 43.67 43.68 87.37 43.68 43.67 0.03 43.67"/><polygon class="cls-2" points="0 218.38 43.68 218.38 43.68 174.69 0 218.38"/><polygon class="cls-3" points="0 218.38 0 262.07 43.68 262.07 43.68 305.68 131.06 305.68 131.06 262.04 43.68 262.04 43.68 218.38 0 218.38"/><rect class="cls-3" width="43.68" height="43.67"/><g class="cls-4"><path class="cls-3" d="M65.54,87.37A65.5,65.5,0,0,0,0,152.87H0v65.51l43.68-43.66h-.29l.29,0V152.87a21.83,21.83,0,1,1,21.86,21.82H43.68v43.69H65.54a65.51,65.51,0,1,0,0-131"/><rect class="cls-3" x="43.68" y="43.67" width="87.38" height="43.7"/></g></svg>